# Blender v2.79 (sub 0) OBJ File: ''
# www.blender.org
mtllib BreadSlice.mtl
o Cube_Cube.001
v -1.481236 -1.087304 1.532006
v -1.481236 -1.087304 -1.015682
v -0.930593 -1.087304 1.532006
v -0.930593 -1.087304 -1.015682
v -1.481236 0.162369 1.532006
v -1.481236 0.416771 1.101085
v -1.481236 0.195575 1.528319
v -1.481236 0.228213 1.517322
v -1.481236 0.259724 1.499204
v -1.481236 0.289570 1.474273
v -1.481236 0.317239 1.442957
v -1.481236 0.342258 1.405792
v -1.481236 0.364200 1.363413
v -1.481236 0.382688 1.316545
v -1.481236 0.397406 1.265991
v -1.481236 0.408102 1.212615
v -1.481236 0.414595 1.157331
v -0.930593 0.416771 1.101085
v -0.930593 0.162369 1.532006
v -0.930593 0.414595 1.157331
v -0.930593 0.408102 1.212615
v -0.930593 0.397406 1.265991
v -0.930593 0.382688 1.316545
v -0.930593 0.364200 1.363413
v -0.930593 0.342258 1.405792
v -0.930593 0.317239 1.442957
v -0.930593 0.289570 1.474273
v -0.930593 0.259724 1.499204
v -0.930593 0.228213 1.517322
v -0.930593 0.195575 1.528319
v -1.481236 0.416771 -0.445207
v -1.481236 0.079980 -1.015682
v -1.481236 0.413343 -0.526394
v -1.481236 0.403129 -0.605928
v -1.481236 0.386336 -0.682191
v -1.481236 0.363307 -0.753629
v -1.481236 0.334510 -0.818789
v -1.481236 0.300531 -0.876343
v -1.481236 0.262063 -0.925121
v -1.481236 0.219888 -0.964129
v -1.481236 0.174865 -0.992574
v -1.481236 0.127911 -1.009875
v -0.930593 0.079980 -1.015682
v -0.930593 0.416771 -0.445207
v -0.930593 0.127911 -1.009875
v -0.930593 0.174865 -0.992574
v -0.930593 0.219888 -0.964129
v -0.930593 0.262063 -0.925121
v -0.930593 0.300531 -0.876343
v -0.930593 0.334510 -0.818789
v -0.930593 0.363307 -0.753629
v -0.930593 0.386336 -0.682191
v -0.930593 0.403129 -0.605928
v -0.930593 0.413343 -0.526394
vn 1.0000 0.0000 0.0000
vn 0.0000 1.0000 0.0000
vn 0.0000 0.0000 -1.0000
vn 0.0000 -1.0000 0.0000
vn 0.0000 0.9993 0.0387
vn 0.0000 0.9932 0.1166
vn 0.0000 0.9805 0.1965
vn 0.0000 0.9601 0.2795
vn 0.0000 0.9302 0.3670
vn 0.0000 0.8880 0.4598
vn 0.0000 0.8295 0.5584
vn 0.0000 0.7494 0.6621
vn 0.0000 0.6411 0.7675
vn 0.0000 0.4985 0.8669
vn 0.0000 0.3193 0.9477
vn 0.0000 0.1103 0.9939
vn 0.0000 0.0000 1.0000
vn 0.0000 0.9991 -0.0422
vn 0.0000 0.9919 -0.1274
vn -0.0000 0.9766 -0.2150
vn 0.0000 0.9518 -0.3068
vn 0.0000 0.9147 -0.4042
vn 0.0000 0.8611 -0.5084
vn 0.0000 0.7852 -0.6192
vn 0.0000 0.6790 -0.7341
vn 0.0000 0.5341 -0.8454
vn -0.0000 0.3458 -0.9383
vn 0.0000 0.1203 -0.9927
vn -1.0000 -0.0000 0.0000
usemtl None
s off
f 4//1 43//1 45//1 46//1 47//1 48//1 49//1 50//1 51//1 52//1 53//1 54//1 44//1 18//1 20//1 21//1 22//1 23//1 24//1 25//1 26//1 27//1 28//1 29//1 30//1 19//1 3//1
f 44//2 31//2 6//2 18//2
f 2//3 32//3 43//3 4//3
f 2//4 4//4 3//4 1//4
f 18//5 6//5 17//5 20//5
f 20//6 17//6 16//6 21//6
f 21//7 16//7 15//7 22//7
f 22//8 15//8 14//8 23//8
f 23//9 14//9 13//9 24//9
f 24//10 13//10 12//10 25//10
f 25//11 12//11 11//11 26//11
f 26//12 11//12 10//12 27//12
f 27//13 10//13 9//13 28//13
f 28//14 9//14 8//14 29//14
f 29//15 8//15 7//15 30//15
f 30//16 7//16 5//16 19//16
f 3//17 19//17 5//17 1//17
f 31//18 44//18 54//18 33//18
f 33//19 54//19 53//19 34//19
f 34//20 53//20 52//20 35//20
f 35//21 52//21 51//21 36//21
f 36//22 51//22 50//22 37//22
f 37//23 50//23 49//23 38//23
f 38//24 49//24 48//24 39//24
f 39//25 48//25 47//25 40//25
f 40//26 47//26 46//26 41//26
f 41//27 46//27 45//27 42//27
f 42//28 45//28 43//28 32//28
f 1//29 5//29 7//29 8//29 9//29 10//29 11//29 12//29 13//29 14//29 15//29 16//29 17//29 6//29 31//29 33//29 34//29 35//29 36//29 37//29 38//29 39//29 40//29 41//29 42//29 32//29 2//29
