# 3ds Max Wavefront OBJ Exporter v0.97b - (c)2007 guruware
# File Created: 22.10.2015 20:46:54

mtllib 3d-model.mtl

#
# object Layer0_001
#

v  -32.6746 40.8750 3.0046
v  -32.6746 81.7500 3.0046
v  -32.3389 81.7500 -5.5546
v  -32.3389 40.8750 -5.5546
v  -29.7994 81.7500 -13.7352
v  -29.7994 40.8750 -13.7352
v  -25.2291 81.7500 -20.9799
v  -25.2291 40.8750 -20.9799
v  -18.9394 40.8750 -26.7948
v  -18.9394 81.7500 -26.7948
v  -11.3591 40.8750 -30.7836
v  -11.3591 81.7500 -30.7836
v  -3.0046 40.8750 -32.6746
v  -3.0046 81.7500 -32.6746
v  5.5546 40.8750 -32.3389
v  5.5546 81.7500 -32.3389
v  13.7352 40.8750 -29.7994
v  13.7352 81.7500 -29.7994
v  20.9799 40.8750 -25.2290
v  20.9799 81.7500 -25.2290
v  26.7948 81.7500 -18.9394
v  26.7948 40.8750 -18.9394
v  30.7836 81.7500 -11.3591
v  30.7836 40.8750 -11.3591
v  32.6746 81.7500 -3.0046
v  32.6746 40.8750 -3.0046
v  32.3389 81.7500 5.5546
v  32.3389 40.8750 5.5546
v  29.7994 81.7500 13.7352
v  29.7994 40.8750 13.7352
v  25.2290 81.7500 20.9799
v  25.2290 40.8750 20.9799
v  18.9394 40.8750 26.7948
v  18.9394 81.7500 26.7948
v  11.3591 40.8750 30.7836
v  11.3591 81.7500 30.7836
v  3.0046 40.8750 32.6746
v  3.0046 81.7500 32.6746
v  -5.5546 40.8750 32.3389
v  -5.5546 81.7500 32.3389
v  -13.7352 40.8750 29.7994
v  -13.7352 81.7500 29.7994
v  -20.9799 40.8750 25.2290
v  -20.9799 81.7500 25.2290
v  -26.7948 81.7500 18.9394
v  -26.7948 40.8750 18.9394
v  -30.7836 81.7500 11.3591
v  -30.7836 40.8750 11.3591
v  15.2495 90.6250 21.5744
v  9.1460 90.6250 24.7861
v  20.3137 90.6250 16.8924
v  23.9936 90.6250 11.0592
v  26.0384 90.6250 4.4724
v  26.3087 90.6250 -2.4192
v  24.7861 90.6250 -9.1460
v  21.5744 90.6250 -15.2495
v  16.8924 90.6250 -20.3137
v  11.0592 90.6250 -23.9936
v  4.4724 90.6250 -26.0384
v  -2.4192 90.6250 -26.3087
v  -9.1460 90.6250 -24.7861
v  -15.2495 90.6250 -21.5744
v  -20.3137 90.6250 -16.8924
v  -23.9936 90.6250 -11.0592
v  -26.0384 90.6250 -4.4724
v  -26.3087 90.6250 2.4192
v  -24.7861 90.6250 9.1460
v  -21.5744 90.6250 15.2495
v  -16.8924 90.6250 20.3137
v  -11.0592 90.6250 23.9936
v  -4.4724 90.6250 26.0384
v  2.4192 90.6250 26.3087
v  -26.0384 98.3750 -4.4724
v  -26.3087 98.3750 2.4192
v  -24.7861 98.3750 9.1460
v  -23.9936 98.3750 -11.0592
v  -21.5744 98.3750 15.2495
v  -20.3137 98.3750 -16.8924
v  -16.8924 98.3750 20.3137
v  -15.2495 98.3750 -21.5744
v  -11.0592 98.3750 23.9936
v  -9.1460 98.3750 -24.7861
v  -4.4724 98.3750 26.0384
v  -2.4192 98.3750 -26.3087
v  2.4192 98.3750 26.3087
v  4.4724 98.3750 -26.0384
v  9.1460 98.3750 24.7861
v  11.0592 98.3750 -23.9936
v  15.2495 98.3750 21.5744
v  16.8924 98.3750 -20.3137
v  20.3137 98.3750 16.8924
v  21.5744 98.3750 -15.2495
v  23.9936 98.3750 11.0592
v  24.7861 98.3750 -9.1460
v  26.0384 98.3750 4.4724
v  26.3087 98.3750 -2.4192
v  -32.3389 0.0000 -5.5546
v  -29.7994 0.0000 -13.7352
v  -32.6746 0.0000 3.0046
v  -25.2291 0.0000 -20.9799
v  -18.9394 0.0000 -26.7948
v  -11.3591 0.0000 -30.7836
v  25.2290 0.0000 20.9799
v  29.7994 0.0000 13.7352
v  -3.0046 0.0000 -32.6746
v  18.9394 0.0000 26.7948
v  5.5546 0.0000 -32.3389
v  11.3591 0.0000 30.7836
v  13.7352 0.0000 -29.7994
v  3.0046 0.0000 32.6746
v  20.9799 0.0000 -25.2290
v  -5.5546 0.0000 32.3389
v  26.7948 0.0000 -18.9394
v  -13.7352 0.0000 29.7994
v  30.7836 0.0000 -11.3591
v  -20.9799 0.0000 25.2290
v  32.6746 0.0000 -3.0046
v  -26.7948 0.0000 18.9394
v  32.3389 0.0000 5.5546
v  -30.7836 0.0000 11.3591
v  -23.4686 5.2500 -4.0310
v  -23.7123 5.2500 2.1805
v  -22.3399 5.2500 8.2434
v  -21.6257 5.2500 -9.9678
v  -19.4452 5.2500 13.7445
v  -18.3089 5.2500 -15.2253
v  -15.2253 5.2500 18.3089
v  -13.7445 5.2500 -19.4452
v  -9.9678 5.2500 21.6257
v  -8.2434 5.2500 -22.3399
v  -4.0310 5.2500 23.4686
v  -2.1805 5.2500 -23.7123
v  2.1805 5.2500 23.7123
v  4.0310 5.2500 -23.4686
v  8.2434 5.2500 22.3399
v  9.9678 5.2500 -21.6257
v  13.7445 5.2500 19.4452
v  15.2253 5.2500 -18.3089
v  18.3089 5.2500 15.2253
v  19.4452 5.2500 -13.7445
v  21.6256 5.2500 9.9678
v  22.3399 5.2500 -8.2434
v  23.4686 5.2500 4.0310
v  23.7122 5.2500 -2.1805
# 144 vertices

vn -0.9958 0.0000 0.0916
vn -0.9856 0.0000 -0.1693
vn -0.9082 0.0000 -0.4186
vn -0.7689 0.0000 -0.6394
vn -0.5772 0.0000 -0.8166
vn -0.3462 0.0000 -0.9382
vn -0.0916 -0.0000 -0.9958
vn 0.1693 -0.0000 -0.9856
vn 0.4186 -0.0000 -0.9082
vn 0.6394 0.0000 -0.7689
vn 0.8166 0.0000 -0.5772
vn 0.9382 0.0000 -0.3462
vn 0.9958 0.0000 -0.0916
vn 0.9856 0.0000 0.1693
vn 0.9082 0.0000 0.4186
vn 0.7689 0.0000 0.6394
vn 0.5772 0.0000 0.8166
vn 0.3462 0.0000 0.9382
vn 0.0916 0.0000 0.9958
vn -0.1693 0.0000 0.9856
vn -0.4186 0.0000 0.9082
vn -0.6394 0.0000 0.7689
vn -0.8166 0.0000 0.5772
vn -0.9382 0.0000 0.3462
vn 0.2809 0.5845 0.7612
vn 0.4683 0.5845 0.6626
vn 0.6239 0.5845 0.5188
vn 0.7369 0.5845 0.3397
vn 0.7997 0.5845 0.1374
vn 0.8080 0.5845 -0.0743
vn 0.7612 0.5845 -0.2809
vn 0.6626 0.5845 -0.4683
vn 0.5188 0.5845 -0.6239
vn 0.3397 0.5845 -0.7369
vn 0.1374 0.5845 -0.7997
vn -0.0743 0.5845 -0.8080
vn -0.2809 0.5845 -0.7612
vn -0.4683 0.5845 -0.6626
vn -0.6239 0.5845 -0.5188
vn -0.7369 0.5845 -0.3397
vn -0.7997 0.5845 -0.1374
vn -0.8080 0.5845 0.0743
vn -0.7612 0.5845 0.2809
vn -0.6626 0.5845 0.4683
vn -0.5188 0.5845 0.6239
vn -0.3397 0.5845 0.7369
vn -0.1374 0.5845 0.7997
vn 0.0743 0.5845 0.8080
vn 0.0000 1.0000 -0.0000
vn 0.6789 0.0000 0.7343
vn 0.8458 0.0000 0.5336
vn 0.9550 0.0000 0.2965
vn 0.9992 0.0000 0.0392
vn 0.9753 0.0000 -0.2208
vn 0.8850 0.0000 -0.4657
vn 0.7343 0.0000 -0.6789
vn 0.5336 0.0000 -0.8458
vn 0.2965 0.0000 -0.9550
vn 0.0392 0.0000 -0.9992
vn -0.2208 0.0000 -0.9753
vn -0.4657 0.0000 -0.8850
vn -0.6789 0.0000 -0.7343
vn -0.8458 0.0000 -0.5336
vn -0.9550 0.0000 -0.2965
vn -0.9992 0.0000 -0.0392
vn -0.9753 0.0000 0.2208
vn -0.8850 0.0000 0.4657
vn -0.7343 0.0000 0.6789
vn -0.5336 0.0000 0.8458
vn -0.2965 0.0000 0.9550
vn -0.0392 0.0000 0.9992
vn 0.2208 0.0000 0.9753
vn 0.4657 0.0000 0.8850
vn 0.9082 -0.0000 0.4186
vn -0.0916 0.0000 -0.9958
vn 0.1693 0.0000 -0.9856
vn 0.4186 0.0000 -0.9082
vn 0.9958 -0.0000 -0.0916
vn 0.9856 -0.0000 0.1693
vn -0.2908 0.8638 -0.4115
vn -0.3874 0.8638 -0.3222
vn -0.1744 0.8638 -0.4727
vn -0.0461 0.8638 -0.5017
vn 0.0853 0.8638 -0.4966
vn 0.2109 0.8638 -0.4576
vn 0.3222 0.8638 -0.3874
vn 0.4115 0.8638 -0.2908
vn 0.4727 0.8638 -0.1744
vn 0.5017 0.8638 -0.0461
vn 0.4966 0.8638 0.0853
vn 0.4576 0.8638 0.2109
vn 0.3874 0.8638 0.3222
vn 0.2908 0.8638 0.4115
vn 0.1744 0.8638 0.4727
vn 0.0461 0.8638 0.5017
vn -0.0853 0.8638 0.4966
vn -0.2109 0.8638 0.4576
vn -0.3222 0.8638 0.3874
vn -0.4115 0.8638 0.2908
vn -0.4727 0.8638 0.1744
vn -0.5017 0.8638 0.0461
vn -0.4966 0.8638 -0.0853
vn -0.4576 0.8638 -0.2109
# 103 vertex normals

vt 0.0000 0.0000 0.0000
vt 4.6531 0.0000 0.0000
vt 4.6531 1.7031 0.0000
vt 4.2951 1.7031 0.0000
vt 4.2951 0.0000 0.0000
vt 5.0110 0.0000 0.0000
vt 5.0110 1.7031 0.0000
vt 3.9372 1.7031 0.0000
vt 3.9372 0.0000 0.0000
vt 3.5793 0.0000 0.0000
vt 3.5793 1.7031 0.0000
vt 3.2214 0.0000 0.0000
vt 3.2214 1.7031 0.0000
vt 8.2324 1.7031 0.0000
vt 8.2324 0.0000 0.0000
vt 8.5903 0.0000 0.0000
vt 8.5903 1.7031 0.0000
vt 2.8634 0.0000 0.0000
vt 2.8634 1.7031 0.0000
vt 7.8744 0.0000 0.0000
vt 7.8744 1.7031 0.0000
vt 2.5055 0.0000 0.0000
vt 2.5055 1.7031 0.0000
vt 7.5165 0.0000 0.0000
vt 7.5165 1.7031 0.0000
vt 2.1476 0.0000 0.0000
vt 2.1476 1.7031 0.0000
vt 7.1586 0.0000 0.0000
vt 7.1586 1.7031 0.0000
vt 1.7896 0.0000 0.0000
vt 1.7896 1.7031 0.0000
vt 6.8006 0.0000 0.0000
vt 6.8006 1.7031 0.0000
vt 1.4317 1.7031 0.0000
vt 1.4317 0.0000 0.0000
vt 6.4427 0.0000 0.0000
vt 6.4427 1.7031 0.0000
vt 1.0738 1.7031 0.0000
vt 1.0738 0.0000 0.0000
vt 6.0848 0.0000 0.0000
vt 6.0848 1.7031 0.0000
vt 0.7159 1.7031 0.0000
vt 0.7159 0.0000 0.0000
vt 5.7269 1.7031 0.0000
vt 5.7269 0.0000 0.0000
vt 0.3579 1.7031 0.0000
vt 0.3579 -0.0000 0.0000
vt 5.3689 1.7031 0.0000
vt 5.3689 0.0000 0.0000
vt -0.0000 1.7031 0.0000
# 50 texture coords

g Layer0_001
usemtl wire_006134006
s off
f 1/1/1 2/1/1 3/1/2 4/1/2 
f 4/1/2 3/1/2 5/1/3 6/1/3 
f 6/1/3 5/1/3 7/1/4 8/1/4 
f 9/1/5 8/1/4 7/1/4 10/1/5 
f 11/1/6 9/1/5 10/1/5 12/1/6 
f 13/1/7 11/1/6 12/1/6 14/1/7 
f 15/1/8 13/1/7 14/1/7 16/1/8 
f 17/1/9 15/1/8 16/1/8 18/1/9 
f 19/1/10 17/1/9 18/1/9 20/1/10 
f 21/1/11 22/1/11 19/1/10 20/1/10 
f 23/1/12 24/1/12 22/1/11 21/1/11 
f 25/1/13 26/1/13 24/1/12 23/1/12 
f 27/1/14 28/1/14 26/1/13 25/1/13 
f 29/1/15 30/1/15 28/1/14 27/1/14 
f 31/1/16 32/1/16 30/1/15 29/1/15 
f 33/1/17 32/1/16 31/1/16 34/1/17 
f 35/1/18 33/1/17 34/1/17 36/1/18 
f 37/1/19 35/1/18 36/1/18 38/1/19 
f 39/1/20 37/1/19 38/1/19 40/1/20 
f 41/1/21 39/1/20 40/1/20 42/1/21 
f 43/1/22 41/1/21 42/1/21 44/1/22 
f 43/1/22 44/1/22 45/1/23 46/1/23 
f 46/1/23 45/1/23 47/1/24 48/1/24 
f 48/1/24 47/1/24 2/1/1 1/1/1 
f 36/1/25 34/1/26 49/1/26 50/1/25 
f 34/1/26 31/1/27 51/1/27 49/1/26 
f 51/1/27 31/1/27 29/1/28 52/1/28 
f 52/1/28 29/1/28 27/1/29 53/1/29 
f 53/1/29 27/1/29 25/1/30 54/1/30 
f 55/1/31 54/1/30 25/1/30 23/1/31 
f 56/1/32 55/1/31 23/1/31 21/1/32 
f 57/1/33 56/1/32 21/1/32 20/1/33 
f 20/1/33 18/1/34 58/1/34 57/1/33 
f 18/1/34 16/1/35 59/1/35 58/1/34 
f 16/1/35 14/1/36 60/1/36 59/1/35 
f 14/1/36 12/1/37 61/1/37 60/1/36 
f 12/1/37 10/1/38 62/1/38 61/1/37 
f 10/1/38 7/1/39 63/1/39 62/1/38 
f 5/1/40 64/1/40 63/1/39 7/1/39 
f 3/1/41 65/1/41 64/1/40 5/1/40 
f 3/1/41 2/1/42 66/1/42 65/1/41 
f 2/1/42 47/1/43 67/1/43 66/1/42 
f 47/1/43 45/1/44 68/1/44 67/1/43 
f 45/1/44 44/1/45 69/1/45 68/1/44 
f 44/1/45 42/1/46 70/1/46 69/1/45 
f 42/1/46 40/1/47 71/1/47 70/1/46 
f 40/1/47 38/1/48 72/1/48 71/1/47 
f 38/1/48 36/1/25 50/1/25 72/1/48 
f 73/1/49 74/1/49 75/1/49 76/1/49 
f 76/1/49 75/1/49 77/1/49 78/1/49 
f 78/1/49 77/1/49 79/1/49 80/1/49 
f 80/1/49 79/1/49 81/1/49 82/1/49 
f 82/1/49 81/1/49 83/1/49 84/1/49 
f 84/1/49 83/1/49 85/1/49 86/1/49 
f 86/1/49 85/1/49 87/1/49 88/1/49 
f 88/1/49 87/1/49 89/1/49 90/1/49 
f 90/1/49 89/1/49 91/1/49 92/1/49 
f 92/1/49 91/1/49 93/1/49 94/1/49 
f 94/1/49 93/1/49 95/1/49 96/1/49 
f 49/1/50 51/1/50 91/1/50 89/1/50 
f 91/1/51 51/1/51 52/1/51 93/1/51 
f 93/1/52 52/1/52 53/1/52 95/1/52 
f 95/1/53 53/1/53 54/1/53 96/1/53 
f 96/1/54 54/1/54 55/1/54 94/1/54 
f 94/1/55 55/1/55 56/1/55 92/1/55 
f 92/1/56 56/1/56 57/1/56 90/1/56 
f 57/1/57 58/1/57 88/1/57 90/1/57 
f 58/1/58 59/1/58 86/1/58 88/1/58 
f 59/1/59 60/1/59 84/1/59 86/1/59 
f 60/1/60 61/1/60 82/1/60 84/1/60 
f 61/1/61 62/1/61 80/1/61 82/1/61 
f 62/1/62 63/1/62 78/1/62 80/1/62 
f 64/1/63 76/1/63 78/1/63 63/1/63 
f 65/1/64 73/1/64 76/1/64 64/1/64 
f 66/1/65 74/1/65 73/1/65 65/1/65 
f 67/1/66 75/1/66 74/1/66 66/1/66 
f 68/1/67 77/1/67 75/1/67 67/1/67 
f 69/1/68 79/1/68 77/1/68 68/1/68 
f 69/1/69 70/1/69 81/1/69 79/1/69 
f 70/1/70 71/1/70 83/1/70 81/1/70 
f 71/1/71 72/1/71 85/1/71 83/1/71 
f 72/1/72 50/1/72 87/1/72 85/1/72 
f 50/1/73 49/1/73 89/1/73 87/1/73 
f 97/2/2 4/3/2 6/4/3 98/5/3 
f 99/6/1 1/7/1 4/3/2 97/2/2 
f 98/5/3 6/4/3 8/8/4 100/9/4 
f 101/10/5 100/9/4 8/8/4 9/11/5 
f 102/12/6 101/10/5 9/11/5 11/13/6 
f 32/14/16 103/15/16 104/16/74 30/17/74 
f 105/18/75 102/12/6 11/13/6 13/19/75 
f 106/20/17 103/15/16 32/14/16 33/21/17 
f 107/22/76 105/18/75 13/19/75 15/23/76 
f 108/24/18 106/20/17 33/21/17 35/25/18 
f 109/26/77 107/22/76 15/23/76 17/27/77 
f 110/28/19 108/24/18 35/25/18 37/29/19 
f 111/30/10 109/26/77 17/27/77 19/31/10 
f 112/32/20 110/28/19 37/29/19 39/33/20 
f 22/34/11 113/35/11 111/30/10 19/31/10 
f 114/36/21 112/32/20 39/33/20 41/37/21 
f 24/38/12 115/39/12 113/35/11 22/34/11 
f 116/40/22 114/36/21 41/37/21 43/41/22 
f 26/42/78 117/43/78 115/39/12 24/38/12 
f 116/40/22 43/41/22 46/44/23 118/45/23 
f 28/46/79 119/47/79 117/43/78 26/42/78 
f 118/45/23 46/44/23 48/48/24 120/49/24 
f 30/50/74 104/1/74 119/47/79 28/46/79 
f 120/49/24 48/48/24 1/7/1 99/6/1 
f 121/1/49 122/1/49 123/1/49 124/1/49 
f 124/1/49 123/1/49 125/1/49 126/1/49 
f 126/1/49 125/1/49 127/1/49 128/1/49 
f 128/1/49 127/1/49 129/1/49 130/1/49 
f 130/1/49 129/1/49 131/1/49 132/1/49 
f 132/1/49 131/1/49 133/1/49 134/1/49 
f 134/1/49 133/1/49 135/1/49 136/1/49 
f 136/1/49 135/1/49 137/1/49 138/1/49 
f 138/1/49 137/1/49 139/1/49 140/1/49 
f 140/1/49 139/1/49 141/1/49 142/1/49 
f 142/1/49 141/1/49 143/1/49 144/1/49 
f 101/1/80 100/1/81 126/1/81 128/1/80 
f 102/1/82 101/1/80 128/1/80 130/1/82 
f 105/1/83 102/1/82 130/1/82 132/1/83 
f 107/1/84 105/1/83 132/1/83 134/1/84 
f 107/1/84 134/1/84 136/1/85 109/1/85 
f 109/1/85 136/1/85 138/1/86 111/1/86 
f 111/1/86 138/1/86 140/1/87 113/1/87 
f 113/1/87 140/1/87 142/1/88 115/1/88 
f 115/1/88 142/1/88 144/1/89 117/1/89 
f 144/1/89 143/1/90 119/1/90 117/1/89 
f 143/1/90 141/1/91 104/1/91 119/1/90 
f 141/1/91 139/1/92 103/1/92 104/1/91 
f 139/1/92 137/1/93 106/1/93 103/1/92 
f 137/1/93 135/1/94 108/1/94 106/1/93 
f 135/1/94 133/1/95 110/1/95 108/1/94 
f 131/1/96 112/1/96 110/1/95 133/1/95 
f 129/1/97 114/1/97 112/1/96 131/1/96 
f 127/1/98 116/1/98 114/1/97 129/1/97 
f 125/1/99 118/1/99 116/1/98 127/1/98 
f 123/1/100 120/1/100 118/1/99 125/1/99 
f 122/1/101 99/1/101 120/1/100 123/1/100 
f 97/1/102 99/1/101 122/1/101 121/1/102 
f 98/1/103 97/1/102 121/1/102 124/1/103 
f 100/1/81 98/1/103 124/1/103 126/1/81 
# 142 polygons

